<svg xmlns="http://www.w3.org/2000/svg" xmlns:xlink="http://www.w3.org/1999/xlink" viewBox="0 0 313.17 148.21"><defs><style>.cls-1{fill:url(#linear-gradient);}.cls-2{fill:url(#linear-gradient-2);}.cls-3{fill:url(#linear-gradient-3);}.cls-4{fill:url(#linear-gradient-4);}.cls-5{fill:url(#linear-gradient-5);}.cls-6{fill:url(#linear-gradient-6);}</style><linearGradient id="linear-gradient" x1="157.79" y1="4.58" x2="157.79" y2="148.21" gradientUnits="userSpaceOnUse"><stop offset="0" stop-color="#3191c3"/><stop offset="1" stop-color="#26749c"/></linearGradient><linearGradient id="linear-gradient-2" x1="12.87" y1="0" x2="12.87" y2="25.09" xlink:href="#linear-gradient"/><linearGradient id="linear-gradient-3" x1="12.87" y1="36.83" x2="12.87" y2="119.44" xlink:href="#linear-gradient"/><linearGradient id="linear-gradient-4" x1="94.43" y1="36.83" x2="94.43" y2="119.44" xlink:href="#linear-gradient"/><linearGradient id="linear-gradient-5" x1="194.56" y1="35.03" x2="194.56" y2="121.23" xlink:href="#linear-gradient"/><linearGradient id="linear-gradient-6" x1="267.72" y1="36.07" x2="267.72" y2="119.44" xlink:href="#linear-gradient"/></defs><title>Asset 1</title><g id="Layer_2" data-name="Layer 2"><g id="Layer_1-2" data-name="Layer 1"><path class="cls-1" d="M36.89,5.94v7.94a1.36,1.36,0,0,0,1.36,1.36H302.5v122.3H13.08V130.2a1.42,1.42,0,0,0-1.42-1.42H3.83a1.42,1.42,0,0,0-1.42,1.42v14.68a3.33,3.33,0,0,0,3.33,3.33H309.84a3.33,3.33,0,0,0,3.33-3.33V7.91a3.33,3.33,0,0,0-3.33-3.33H38.25A1.36,1.36,0,0,0,36.89,5.94Z"/><path class="cls-2" d="M25.47,9.8A12.55,12.55,0,0,1,13.18,25.09,12.8,12.8,0,0,1,0,12.53C0,4.26,8-2,16.89.57,20.75,1.66,24.7,5.86,25.47,9.8Z"/><rect class="cls-3" x="2.28" y="36.83" width="21.18" height="82.61" rx="2.23" ry="2.23"/><path class="cls-4" d="M155.79,38.94l-23.94,79.34a1.64,1.64,0,0,1-1.57,1.17H110.54a1.64,1.64,0,0,1-1.57-1.16L95.86,75.79a1.64,1.64,0,0,0-3.12,0l-14,42.55a1.64,1.64,0,0,1-1.56,1.13H58.57A1.64,1.64,0,0,1,57,118.28L33.06,38.94a1.64,1.64,0,0,1,1.57-2.11H54a1.64,1.64,0,0,1,1.59,1.24l12.22,48.4,0,.13h0a1.64,1.64,0,0,0,3.22.06v-.07l0-.12L84.72,38a1.64,1.64,0,0,1,1.58-1.19h16.26A1.64,1.64,0,0,1,104.13,38l13.66,48.45,0,.12v.07a1.64,1.64,0,0,0,3.22-.06h0l0-.14,12.38-48.4a1.64,1.64,0,0,1,1.59-1.23h19.17A1.64,1.64,0,0,1,155.79,38.94Z"/><path class="cls-5" d="M228.61,65.18v52.27a2,2,0,0,1-2,2H212.27a2,2,0,0,1-2-1.73l-.47-3.64a2,2,0,0,0-3.42-1.1c-5.07,5.54-12,8.26-20.82,8.26-15,0-25.09-9.29-25.09-23.79,0-15.15,9.45-22.16,25.58-24.77l19.72-3.61a2,2,0,0,0,1.63-2V65.67c0-8.31-3.91-12.55-11.57-12.55-6.55,0-11.46,3.67-12.27,9.27a2,2,0,0,1-2,1.65H165.15a2,2,0,0,1-2-2.25C165.23,45.89,177.65,35,195.86,35,216.07,35,228.61,45.46,228.61,65.18ZM207.43,85.38A2,2,0,0,0,205,83.44L191,86.36q-9.29,2.2-9.29,9.29c0,5.05,3.59,8.15,9.61,8.15a14.58,14.58,0,0,0,13.2-7.5,19.88,19.88,0,0,0,2.93-10.92Z"/><path class="cls-6" d="M289.88,55.06a2.2,2.2,0,0,1-2.09,2.19c-5.75.31-10.58,1.92-14.37,4.83-4.07,3.26-6.36,8.31-6.68,15.32v39.84a2.2,2.2,0,0,1-2.2,2.2H247.76a2.2,2.2,0,0,1-2.2-2.2V39a2.2,2.2,0,0,1,2.2-2.2h14.15a2.2,2.2,0,0,1,2.18,1.88l.73,4.95a2.2,2.2,0,0,0,3.92,1c3.8-4.88,10.05-8.11,18.81-8.59a2.21,2.21,0,0,1,2.33,2.21Z"/></g></g></svg>