<?xml version="1.0" encoding="utf-8"?>
<!-- Generator: Adobe Illustrator 21.0.2, SVG Export Plug-In . SVG Version: 6.00 Build 0)  -->
<svg version="1.1" id="Layer_1" xmlns="http://www.w3.org/2000/svg" xmlns:xlink="http://www.w3.org/1999/xlink" x="0px" y="0px"
	 viewBox="0 0 313.2 148.2" style="enable-background:new 0 0 313.2 148.2;" xml:space="preserve">
<style type="text/css">
	.st0{fill:#FFFFFF;}
</style>
<g id="Layer_2">
	<g id="Layer_1-2">
		<path class="st0" d="M36.9,5.9v7.9c0,0.8,0.6,1.4,1.4,1.4l0,0h264.2v122.3H13.1v-7.3c0-0.8-0.6-1.4-1.4-1.4H3.8
			c-0.8,0-1.4,0.6-1.4,1.4v14.7c0,1.8,1.5,3.3,3.3,3.3c0,0,0,0,0,0h304.1c1.8,0,3.3-1.5,3.3-3.3V7.9c0-1.8-1.5-3.3-3.3-3.3H38.2
			C37.5,4.6,36.9,5.2,36.9,5.9L36.9,5.9z"/>
		<path class="st0" d="M25.5,9.8c1.5,6.8-2.7,13.5-9.5,15c-0.9,0.2-1.8,0.3-2.8,0.3C6.1,25.3,0.2,19.7,0,12.7c0,0,0-0.1,0-0.1
			C0,4.3,8-2,16.9,0.6C20.8,1.7,24.7,5.9,25.5,9.8z"/>
		<path class="st0" d="M4.5,36.8h16.7c1.2,0,2.2,1,2.2,2.2v78.1c0,1.2-1,2.2-2.2,2.2H4.5c-1.2,0-2.2-1-2.2-2.2V39.1
			C2.3,37.8,3.3,36.8,4.5,36.8z"/>
		<path class="st0" d="M155.8,38.9l-23.9,79.3c-0.2,0.7-0.8,1.2-1.6,1.2h-19.7c-0.7,0-1.4-0.5-1.6-1.2L95.9,75.8
			c-0.3-0.9-1.2-1.3-2.1-1.1c-0.5,0.2-0.9,0.6-1.1,1.1l-14,42.5c-0.2,0.7-0.9,1.1-1.6,1.1H58.6c-0.7,0-1.4-0.5-1.6-1.2L33.1,38.9
			c-0.3-0.9,0.2-1.8,1.1-2c0.2,0,0.3-0.1,0.5-0.1H54c0.8,0,1.4,0.5,1.6,1.2l12.2,48.4v0.1l0,0c0.2,0.9,1,1.5,1.9,1.3
			c0.7-0.1,1.2-0.6,1.3-1.3v-0.1v-0.1L84.7,38c0.2-0.7,0.8-1.2,1.6-1.2h16.3c0.7,0,1.4,0.5,1.6,1.2l13.7,48.4v0.1v0.1
			c0.2,0.9,1.1,1.5,1.9,1.3c0.7-0.1,1.2-0.7,1.3-1.3l0,0v-0.1L133.4,38c0.2-0.7,0.8-1.2,1.6-1.2h19.2c0.9,0,1.7,0.7,1.7,1.6
			C155.9,38.6,155.8,38.8,155.8,38.9z"/>
		<path class="st0" d="M228.6,65.2v52.3c0,1.1-0.9,2-2,2h-14.3c-1,0-1.9-0.7-2-1.7l-0.5-3.6c-0.2-1.1-1.2-1.9-2.3-1.7
			c-0.4,0.1-0.8,0.3-1.2,0.6c-5.1,5.5-12,8.3-20.8,8.3c-15,0-25.1-9.3-25.1-23.8c0-15.2,9.4-22.2,25.6-24.8l19.7-3.6
			c1-0.2,1.6-1,1.6-2v-1.4c0-8.3-3.9-12.5-11.6-12.5c-6.6,0-11.5,3.7-12.3,9.3c-0.2,1-1,1.7-2,1.7h-16.4c-1.1,0-2-0.9-2-2
			c0-0.1,0-0.2,0-0.3c2.1-15.9,14.5-26.8,32.7-26.8C216.1,35,228.6,45.5,228.6,65.2z M207.4,85.4c0-1.1-0.9-2-2-2
			c-0.1,0-0.3,0-0.4,0l-14,2.9c-6.2,1.5-9.3,4.6-9.3,9.3c0,5.1,3.6,8.2,9.6,8.2c5.5,0.2,10.6-2.7,13.2-7.5
			C206.5,93,207.6,89.2,207.4,85.4L207.4,85.4z"/>
		<path class="st0" d="M289.9,55.1c0,1.2-0.9,2.1-2.1,2.2c-5.8,0.3-10.6,1.9-14.4,4.8c-4.1,3.3-6.4,8.3-6.7,15.3v39.8
			c0,1.2-1,2.2-2.2,2.2l0,0h-16.8c-1.2,0-2.2-1-2.2-2.2V39c0-1.2,1-2.2,2.2-2.2h14.2c1.1,0,2,0.8,2.2,1.9l0.7,5
			c0.2,1.2,1.3,2,2.5,1.8c0.6-0.1,1.1-0.4,1.4-0.8c3.8-4.9,10-8.1,18.8-8.6c1.2-0.1,2.3,0.9,2.3,2.1c0,0,0,0.1,0,0.1V55.1z"/>
	</g>
</g>
</svg>
